<?xml version="1.0" encoding="utf-8"?>
<svg version="1.1" x="0px" y="0px" viewBox="7 7 86 86" xmlns="http://www.w3.org/2000/svg">
  <g transform="translate(0,-952.36218)">
    <path style="text-indent:0;text-transform:none;direction:ltr;block-progression:tb;baseline-shift:baseline;color:#000000;enable-background:accumulate;" d="m 50,959.36217 c -23.73639,0 -43.0000001,19.26376 -43.0000001,43.00003 0,23.7363 19.2636101,43 43.0000001,43 23.73639,0 43,-19.2637 43,-43 0,-23.73627 -19.26361,-43.00003 -43,-43.00003 z m 0,2 c 22.65551,0 41,18.34464 41,41.00003 0,22.6554 -18.34449,41 -41,41 -22.65551,0 -41.0000001,-18.3446 -41.0000001,-41 0,-22.65539 18.3444901,-41.00003 41.0000001,-41.00003 z m 0,13 c -2.20913,0 -4,1.7909 -4,4 l 1,37.00003 c 0,1.6568 1.34315,3 3,3 1.65684,0 3,-1.3432 3,-3 l 1,-37.00003 c 0,-2.2091 -1.79088,-4 -4,-4 z m 0,48.00003 c -2.20913,0 -4,1.7908 -4,4 0,2.2091 1.79087,4 4,4 2.20913,0 4,-1.7909 4,-4 0,-2.2092 -1.79087,-4 -4,-4 z" fill="#000000" fill-opacity="1" stroke="none" marker="none" visibility="visible" display="inline" overflow="visible"/>
  </g>
</svg>