<?xml version="1.0" encoding="utf-8"?>
<svg version="1.1" x="0px" y="0px" viewBox="29.296 8.3 41.007 84.2" style="enable-background:new 0 0 100 100;" xmlns="http://www.w3.org/2000/svg">
  <style type="text/css">
	.st0{fill:none;stroke:#000000;stroke-width:2;stroke-linecap:round;stroke-linejoin:round;stroke-miterlimit:10;}
	.st1{stroke:#000000;stroke-width:0.5;stroke-linecap:round;stroke-linejoin:round;stroke-miterlimit:10;}
	.st2{stroke:#000000;stroke-width:0.25;stroke-linecap:round;stroke-linejoin:round;stroke-miterlimit:10;}
	.st3{fill:none;stroke:#000000;stroke-width:2;stroke-miterlimit:10;}
</style>
  <path d="M55.1,15.2c-0.5-0.3-1.1-0.1-1.4,0.4c-0.3,0.5-0.1,1.1,0.4,1.4c5.1,2.8,8.4,9.1,8.5,16c0,3.4-0.7,6.8-2.2,9.7  c-0.2,0.5,0,1.1,0.4,1.3c0.1,0.1,0.3,0.1,0.4,0.1c0.4,0,0.7-0.2,0.9-0.6c1.6-3.2,2.4-6.8,2.4-10.6C64.6,25.4,60.8,18.4,55.1,15.2z"/>
  <path d="M70.3,33.3C70.1,19.5,60.9,8.3,49.7,8.3c-0.1,0-0.1,0-0.2,0C43.9,8.4,38.8,11.1,35,16c-3.8,4.8-5.8,11.1-5.7,17.8  c0.2,12.5,7.9,23.1,17.9,24.7l-0.5,1.1c-0.4,0.9-0.3,1.8,0.2,2.6c0.5,0.8,1.3,1.2,2.2,1.3c0,1.1,0,6.2,5.2,11.1  c7,6.7,3.9,16.1,3.8,16.5c-0.2,0.5,0.1,1.1,0.6,1.3c0.1,0,0.2,0.1,0.3,0.1c0.4,0,0.8-0.3,0.9-0.7c0.2-0.4,3.6-10.9-4.3-18.5  c-4.8-4.6-4.6-9.2-4.5-9.6h0.1c0.9,0,1.8-0.5,2.3-1.3s0.6-1.8,0.2-2.6L53,58.4C63,56.6,70.5,45.8,70.3,33.3z M51.4,56.7  c-0.3,0-0.6,0.2-0.8,0.5s-0.2,0.6,0,0.9l1.1,2.4c0.2,0.3,0,0.6,0,0.7s-0.3,0.3-0.6,0.3h-2c-0.4,0-0.6-0.2-0.6-0.3s-0.2-0.4,0-0.7  l1.1-2.3c0.1-0.3,0.1-0.6,0-0.9c-0.2-0.3-0.5-0.5-0.8-0.5c-9.6-0.8-17.3-10.8-17.5-22.9c-0.1-6.2,1.8-12.1,5.3-16.6  c3.4-4.4,8-6.8,13-6.9c0.1,0,0.1,0,0.2,0c10.1,0,18.5,10.3,18.6,23C68.5,45.4,61,55.7,51.4,56.7z"/>
</svg>