<?xml version="1.0" encoding="utf-8"?>
<svg version="1.1" x="0px" y="0px" viewBox="10.001 14.932 80.237 70.085" xmlns="http://www.w3.org/2000/svg">
  <g transform="translate(0,-952.36218)">
    <path style="text-indent:0;text-transform:none;direction:ltr;block-progression:tb;baseline-shift:baseline;color:#000000;enable-background:accumulate;" d="m 86.876251,967.34797 c -0.7675,0.046 -1.512,0.4016 -2.0313,0.9687 -10.7004,11.1954 -29.8497,32.12233 -41.1875,44.06253 l -14.8437,-11.375 c -1.2237,-1.12613 -3.4079,-0.9345 -4.4168,0.3875 -1.0089,1.322 -0.6173,3.4794 0.7918,4.3625 l 17,13 c 1.1579,0.8744 2.962,0.7324 3.9687,-0.3125 11.1713,-11.6878 31.949,-34.43773 43,-46.00003 0.8349,-0.8547 1.0803,-2.2323 0.5919,-3.3228 -0.4883,-1.0904 -1.6795,-1.8246 -2.8731,-1.7709 z m -76.875,7.0312 0,60.00003 c 2e-4,1.5708 1.4293,2.9998 3,3 l 60,0 c 1.5707,-2e-4 2.9998,-1.4292 3,-3 l 0,-30 c 0.022,-1.5849 -1.4149,-3.0427 -3,-3.0427 -1.5851,0 -3.0224,1.4578 -3,3.0427 l 0,27 -54,0 0,-54.00003 47,0 c 1.5849,0.022 3.0427,-1.4149 3.0427,-3 0,-1.5851 -1.4578,-3.0224 -3.0427,-3 l -50,0 c -1.6255,0.016 -2.9671,1.7358 -3,3 z" fill="#000000" fill-opacity="1" stroke="none" marker="none" visibility="visible" display="inline" overflow="visible"/>
  </g>
</svg>