<svg xmlns="http://www.w3.org/2000/svg" xmlns:xlink="http://www.w3.org/1999/xlink" version="1.1" x="0px" y="0px" viewBox="0 0 100 100" enable-background="new 0 0 100 100" xml:space="preserve"><g><g><path d="M83.909,32.154v-7.141H8.952v42.834h7.139v7.139h74.957V32.154H83.909z M12.521,28.584H80.34v35.693H12.521V28.584z     M87.479,71.416H19.66v-3.568h64.249V35.723h3.569V71.416z"></path><polygon points="14.307,39.293 17.876,39.293 17.876,33.938 23.229,33.938 23.229,30.369 14.307,30.369   "></polygon><polygon points="17.876,53.57 14.307,53.57 14.307,62.492 23.229,62.492 23.229,58.924 17.876,58.924   "></polygon><polygon points="74.985,58.924 69.632,58.924 69.632,62.492 78.555,62.492 78.555,53.57 74.985,53.57   "></polygon><polygon points="69.632,33.938 74.985,33.938 74.985,39.293 78.555,39.293 78.555,30.369 69.632,30.369   "></polygon><path d="M46.431,32.154c-7.872,0-14.277,6.404-14.277,14.277c0,7.871,6.405,14.277,14.277,14.277s14.277-6.406,14.277-14.277    C60.708,38.559,54.303,32.154,46.431,32.154z M46.431,57.139c-5.904,0-10.708-4.803-10.708-10.707    c0-5.906,4.804-10.709,10.708-10.709c5.905,0,10.708,4.803,10.708,10.709C57.139,52.336,52.336,57.139,46.431,57.139z"></path></g></g></svg>