<svg xmlns="http://www.w3.org/2000/svg" xmlns:xlink="http://www.w3.org/1999/xlink" version="1.1" x="0px" y="0px" viewBox="0 0 100 100" style="enable-background:new 0 0 100 100;" xml:space="preserve"><g><circle cx="50" cy="63.5" r="3"></circle><g><path d="M88.6,50c0-21.3-17.3-38.6-38.6-38.6S11.4,28.7,11.4,50S28.7,88.6,50,88.6S88.6,71.3,88.6,50z M15.6,50    c0-18.9,15.4-34.4,34.4-34.4S84.4,31.1,84.4,50S68.9,84.4,50,84.4S15.6,68.9,15.6,50z"></path><path d="M55.8,42.1c0.1,2.5-1.4,4.8-3.7,5.7c-2.6,1-4.3,3.6-4.3,6.5v1.4h4.2v-1.4c0-1.1,0.7-2.2,1.6-2.6c4-1.6,6.5-5.5,6.3-9.8    c-0.2-5.1-4.5-9.4-9.6-9.6C47.7,32.1,45,33.1,43,35c-2,1.9-3.1,4.5-3.1,7.3h4.2c0-1.6,0.6-3.1,1.8-4.2c1.2-1.1,2.7-1.7,4.3-1.6    C53.3,36.6,55.7,39.1,55.8,42.1z"></path></g></g></svg>